<svg width="198" height="26" viewBox="0 0 198 26" fill="none" xmlns="http://www.w3.org/2000/svg">
<g clip-path="url(#clip0_324_3859)">
<path d="M18.0478 7.75116H0.123825V25.4204H7.18793V14.715H18.0478V7.75116Z" fill="#E53012"/>
<path d="M10.984 18.4568H18.0478V25.4204H10.984V18.4568Z" fill="#005F9F"/>
<path d="M12.987 0.0599999H18.0478V5.04883H12.987V0.0599999Z" fill="#005F9F"/>
<path d="M21.8437 7.75123H28.9078V14.7148H21.8437V7.75123Z" fill="#005F9F"/>
<path d="M21.8437 18.4567H25.0582V21.6255H21.8437V18.4567Z" fill="#005F9F"/>
<path d="M41.21 25.4204H46.1918V12.3245H56.1644V7.75116H41.21V25.4204Z" fill="#1A1919"/>
<path d="M63.9358 18.832H74.0708V14.3403H63.9358V12.3245H75.1385V7.75116H58.954V25.4204H75.3559V20.8476H63.9358V18.832Z" fill="#1A1919"/>
<path d="M149.272 17.6119H143.836V12.6533H149.272C150.659 12.6533 151.787 13.7658 151.787 15.1327C151.787 16.4996 150.659 17.6119 149.272 17.6119ZM149.272 7.76043L138.854 7.7514V25.4204H143.836V22.5048H149.272C153.396 22.5048 156.751 19.1977 156.751 15.1327C156.751 11.0674 153.396 7.76043 149.272 7.76043Z" fill="#1A1919"/>
<path d="M96.4705 7.75116H90.7177L86.1608 14.4274H83.6878V7.75116H78.7059V25.4204H83.6878V18.9194H86.2597L90.9755 25.4204H96.894L90.2454 16.555L96.4705 7.75116Z" fill="#1A1919"/>
<path d="M123.949 18.3545L126.301 12.2432H126.919L129.214 18.3545H123.949ZM131.868 25.4204H137.263L129.925 7.7514H123.337L115.834 25.4204H121.229L122.22 22.8463H130.901L131.868 25.4204Z" fill="#1A1919"/>
<path d="M172.817 7.7514L170.239 14.7438H165.858C165.533 14.7438 165.243 14.5436 165.132 14.2426L162.738 7.7514H157.157L160.246 16.2267C160.922 18.0808 162.705 19.3171 164.704 19.3171H168.552L168.172 20.3461C168.061 20.6469 167.771 20.8473 167.447 20.8473H162.598V25.4204H168.601C170.599 25.4204 172.383 24.1841 173.059 22.3302L178.373 7.7514H172.817Z" fill="#1A1919"/>
<path d="M106.449 21.5436C104.045 21.5353 101.467 20.041 101.467 16.7691V16.5858V16.4027C101.467 13.1308 104.045 11.6363 106.449 11.628C108.452 11.6343 110.497 12.5274 111.411 14.3918L115.955 12.2954C114.042 8.49748 109.539 7.29465 106.655 7.23532L106.469 7.2319C106.462 7.2319 106.434 7.2319 106.427 7.2319L106.242 7.23556C102.518 7.31271 96.5056 9.30848 96.5056 16.4027V16.5858V16.7691C96.5056 23.8634 102.518 25.8589 106.242 25.9363L106.427 25.9399C106.434 25.9399 106.462 25.9399 106.469 25.9399L106.655 25.9363C109.539 25.877 114.042 24.6744 115.955 20.8762L111.411 18.78C110.497 20.6442 108.452 21.5373 106.449 21.5436Z" fill="#1A1919"/>
<path d="M188.37 21.5436C185.967 21.5353 183.389 20.041 183.389 16.7691V16.5858V16.4027C183.389 13.1308 185.967 11.6363 188.37 11.628C190.374 11.6343 192.418 12.5274 193.332 14.3918L197.876 12.2954C195.964 8.49748 191.461 7.29465 188.576 7.23532L188.39 7.2319C188.384 7.2319 188.356 7.2319 188.349 7.2319L188.163 7.23556C184.44 7.31271 178.427 9.30848 178.427 16.4027V16.5858V16.7691C178.427 23.8634 184.44 25.8589 188.163 25.9363L188.349 25.9399C188.356 25.9399 188.384 25.9399 188.39 25.9399L188.576 25.9363C191.461 25.877 195.964 24.6744 197.876 20.8762L193.332 18.78C192.418 20.6442 190.374 21.5373 188.37 21.5436Z" fill="#1A1919"/>
</g>
<defs>
<clipPath id="clip0_324_3859">
<rect width="198" height="26" fill="white"/>
</clipPath>
</defs>
</svg>
