<svg width="41" height="41" viewBox="0 0 41 41" fill="none" xmlns="http://www.w3.org/2000/svg">
<rect x="0.666672" y="0.5" width="40" height="40" rx="20" fill="#0077FF"/>
<path d="M21.6492 27.5C14.1326 27.5 9.84531 22.2447 9.66667 13.5H13.4318C13.5555 19.9184 16.3313 22.6371 18.5299 23.1977V13.5H22.0752V19.0355C24.2463 18.7973 26.5274 16.2748 27.2969 13.5H30.8422C30.5522 14.9391 29.9742 16.3017 29.1443 17.5025C28.3144 18.7033 27.2504 19.7166 26.019 20.479C27.3935 21.1756 28.6077 22.1615 29.5812 23.3717C30.5547 24.582 31.2655 25.989 31.6667 27.5H27.7641C27.404 26.1876 26.6721 25.0128 25.6601 24.1228C24.6481 23.2328 23.401 22.6673 22.0752 22.497V27.5H21.6492Z" fill="white"/>
</svg>
